<mxfile host="Electron" modified="2023-10-21T14:53:04.263Z" agent="Mozilla/5.0 (Windows NT 10.0; Win64; x64) AppleWebKit/537.36 (KHTML, like Gecko) draw.io/21.2.8 Chrome/112.0.5615.165 Electron/24.2.0 Safari/537.36" etag="18giNOdUlRAvl7ZvwMfv" version="21.2.8" type="device">
  <diagram name="第 1 页" id="oSoOq4cKzJZ6KcOtxv8w">
    <mxGraphModel dx="1100" dy="1986" grid="1" gridSize="10" guides="1" tooltips="1" connect="1" arrows="1" fold="1" page="1" pageScale="1" pageWidth="827" pageHeight="1169" math="0" shadow="0">
      <root>
        <mxCell id="0" />
        <mxCell id="1" parent="0" />
        <mxCell id="0xJEWBCu3Yegg7E7fp9d-10" value="" style="edgeStyle=orthogonalEdgeStyle;rounded=0;orthogonalLoop=1;jettySize=auto;html=1;" edge="1" parent="1" source="0xJEWBCu3Yegg7E7fp9d-2" target="0xJEWBCu3Yegg7E7fp9d-9">
          <mxGeometry relative="1" as="geometry" />
        </mxCell>
        <mxCell id="0xJEWBCu3Yegg7E7fp9d-2" value="&lt;font style=&quot;font-size: 32px;&quot;&gt;Matmul, QK^T&lt;/font&gt;" style="rounded=1;whiteSpace=wrap;html=1;" vertex="1" parent="1">
          <mxGeometry x="258" y="350" width="170" height="80" as="geometry" />
        </mxCell>
        <mxCell id="0xJEWBCu3Yegg7E7fp9d-21" style="edgeStyle=orthogonalEdgeStyle;rounded=0;orthogonalLoop=1;jettySize=auto;html=1;entryX=0.25;entryY=1;entryDx=0;entryDy=0;" edge="1" parent="1" source="0xJEWBCu3Yegg7E7fp9d-4" target="0xJEWBCu3Yegg7E7fp9d-2">
          <mxGeometry relative="1" as="geometry" />
        </mxCell>
        <mxCell id="0xJEWBCu3Yegg7E7fp9d-4" value="&lt;font style=&quot;font-size: 32px;&quot;&gt;Q&lt;/font&gt;" style="text;html=1;strokeColor=none;fillColor=none;align=center;verticalAlign=middle;whiteSpace=wrap;rounded=0;" vertex="1" parent="1">
          <mxGeometry x="268" y="470" width="66" height="40" as="geometry" />
        </mxCell>
        <mxCell id="0xJEWBCu3Yegg7E7fp9d-20" style="edgeStyle=orthogonalEdgeStyle;rounded=0;orthogonalLoop=1;jettySize=auto;html=1;entryX=0.75;entryY=1;entryDx=0;entryDy=0;" edge="1" parent="1" source="0xJEWBCu3Yegg7E7fp9d-5" target="0xJEWBCu3Yegg7E7fp9d-2">
          <mxGeometry relative="1" as="geometry" />
        </mxCell>
        <mxCell id="0xJEWBCu3Yegg7E7fp9d-5" value="&lt;span style=&quot;font-size: 32px;&quot;&gt;K&lt;/span&gt;" style="text;html=1;strokeColor=none;fillColor=none;align=center;verticalAlign=middle;whiteSpace=wrap;rounded=0;" vertex="1" parent="1">
          <mxGeometry x="377" y="470" width="16" height="40" as="geometry" />
        </mxCell>
        <mxCell id="0xJEWBCu3Yegg7E7fp9d-17" style="edgeStyle=orthogonalEdgeStyle;rounded=0;orthogonalLoop=1;jettySize=auto;html=1;entryX=0.75;entryY=1;entryDx=0;entryDy=0;" edge="1" parent="1" source="0xJEWBCu3Yegg7E7fp9d-6" target="0xJEWBCu3Yegg7E7fp9d-15">
          <mxGeometry relative="1" as="geometry">
            <Array as="points">
              <mxPoint x="468" y="225" />
            </Array>
          </mxGeometry>
        </mxCell>
        <mxCell id="0xJEWBCu3Yegg7E7fp9d-6" value="&lt;span style=&quot;font-size: 32px;&quot;&gt;V&lt;/span&gt;" style="text;html=1;strokeColor=none;fillColor=none;align=center;verticalAlign=middle;whiteSpace=wrap;rounded=0;" vertex="1" parent="1">
          <mxGeometry x="430" y="470" width="66" height="40" as="geometry" />
        </mxCell>
        <mxCell id="0xJEWBCu3Yegg7E7fp9d-12" value="" style="edgeStyle=orthogonalEdgeStyle;rounded=0;orthogonalLoop=1;jettySize=auto;html=1;" edge="1" parent="1" source="0xJEWBCu3Yegg7E7fp9d-9" target="0xJEWBCu3Yegg7E7fp9d-11">
          <mxGeometry relative="1" as="geometry" />
        </mxCell>
        <mxCell id="0xJEWBCu3Yegg7E7fp9d-9" value="&lt;span style=&quot;font-size: 32px;&quot;&gt;scale&lt;/span&gt;" style="rounded=1;whiteSpace=wrap;html=1;" vertex="1" parent="1">
          <mxGeometry x="286.5" y="270" width="113" height="40" as="geometry" />
        </mxCell>
        <mxCell id="0xJEWBCu3Yegg7E7fp9d-14" value="" style="edgeStyle=orthogonalEdgeStyle;rounded=0;orthogonalLoop=1;jettySize=auto;html=1;" edge="1" parent="1" source="0xJEWBCu3Yegg7E7fp9d-11" target="0xJEWBCu3Yegg7E7fp9d-13">
          <mxGeometry relative="1" as="geometry" />
        </mxCell>
        <mxCell id="0xJEWBCu3Yegg7E7fp9d-11" value="&lt;span style=&quot;font-size: 32px;&quot;&gt;mask (opt.)&lt;/span&gt;" style="rounded=1;whiteSpace=wrap;html=1;" vertex="1" parent="1">
          <mxGeometry x="258" y="160" width="170" height="60" as="geometry" />
        </mxCell>
        <mxCell id="0xJEWBCu3Yegg7E7fp9d-18" style="edgeStyle=orthogonalEdgeStyle;rounded=0;orthogonalLoop=1;jettySize=auto;html=1;entryX=0.25;entryY=1;entryDx=0;entryDy=0;" edge="1" parent="1" source="0xJEWBCu3Yegg7E7fp9d-13" target="0xJEWBCu3Yegg7E7fp9d-15">
          <mxGeometry relative="1" as="geometry" />
        </mxCell>
        <mxCell id="0xJEWBCu3Yegg7E7fp9d-13" value="&lt;span style=&quot;font-size: 32px;&quot;&gt;Softmax&lt;/span&gt;" style="rounded=1;whiteSpace=wrap;html=1;" vertex="1" parent="1">
          <mxGeometry x="278" y="50" width="130" height="60" as="geometry" />
        </mxCell>
        <mxCell id="0xJEWBCu3Yegg7E7fp9d-15" value="&lt;span style=&quot;font-size: 32px;&quot;&gt;Matmul&lt;/span&gt;" style="rounded=1;whiteSpace=wrap;html=1;" vertex="1" parent="1">
          <mxGeometry x="280" y="-80" width="250" height="60" as="geometry" />
        </mxCell>
        <mxCell id="0xJEWBCu3Yegg7E7fp9d-22" value="&lt;font style=&quot;font-size: 14px;&quot;&gt;(batch_size, nq, d_model)&lt;/font&gt;" style="text;html=1;strokeColor=none;fillColor=none;align=center;verticalAlign=middle;whiteSpace=wrap;rounded=0;" vertex="1" parent="1">
          <mxGeometry x="106.5" y="470" width="180" height="30" as="geometry" />
        </mxCell>
        <mxCell id="0xJEWBCu3Yegg7E7fp9d-23" value="&lt;font style=&quot;font-size: 14px;&quot;&gt;(batch_size, seq_len, d_model)&lt;/font&gt;" style="text;html=1;strokeColor=none;fillColor=none;align=center;verticalAlign=middle;whiteSpace=wrap;rounded=0;" vertex="1" parent="1">
          <mxGeometry x="286.5" y="510" width="212" height="30" as="geometry" />
        </mxCell>
        <mxCell id="0xJEWBCu3Yegg7E7fp9d-24" value="&lt;font style=&quot;font-size: 14px;&quot;&gt;(batch_size, seq_len, d_model)&lt;/font&gt;" style="text;html=1;strokeColor=none;fillColor=none;align=center;verticalAlign=middle;whiteSpace=wrap;rounded=0;" vertex="1" parent="1">
          <mxGeometry x="480" y="475" width="200" height="30" as="geometry" />
        </mxCell>
        <mxCell id="0xJEWBCu3Yegg7E7fp9d-25" value="&lt;font style=&quot;font-size: 14px;&quot;&gt;(batch_size, nq, seq_len)&lt;/font&gt;" style="text;html=1;strokeColor=none;fillColor=none;align=center;verticalAlign=middle;whiteSpace=wrap;rounded=0;" vertex="1" parent="1">
          <mxGeometry x="78" y="375" width="190" height="30" as="geometry" />
        </mxCell>
        <mxCell id="0xJEWBCu3Yegg7E7fp9d-26" value="&lt;font style=&quot;font-size: 14px;&quot;&gt;(batch_size, nq, d_model)&lt;/font&gt;" style="text;html=1;strokeColor=none;fillColor=none;align=center;verticalAlign=middle;whiteSpace=wrap;rounded=0;" vertex="1" parent="1">
          <mxGeometry x="297.5" y="-120" width="190" height="30" as="geometry" />
        </mxCell>
      </root>
    </mxGraphModel>
  </diagram>
</mxfile>
